# xmcd
#
# Track frame offsets: 
#        150
#        28911
#        33881
#        47516
#        64445
#        79542
#        98442
#        105396
#        118833
#        133986
#        168106
#        190322
#        206519
#        226675
#        239658
#        242238
#        265610
#        294436
#
# Disc length: 4036 seconds
#
# Revision: 3
# Processed by: cddbd v1.5.2PL0 Copyright (c) Steve Scherf et al.
# Submitted via: ExactAudioCopy v0.95b4
#
DISCID=f20fc212
DTITLE=Milton Nascimento - Maria Maria
DYEAR=1976
DGENRE=MPB
TTITLE0=Maria Maria
TTITLE1=Cozinha [Kitchen]
TTITLE2=Pilar (do Pila) 
TTITLE3=Trabalhos (Essa Voz)[Works]
TTITLE4=Lilia
TTITLE5=A Chamada [The Call]
TTITLE6=Era Rei e Sou Escravo [I Was A King And Now I Am Slave]
TTITLE7=Os Escravos de Jo [Jo's Slaves]
TTITLE8=Terra dos Deuses [The Gods' Themes]
TTITLE9=Santos Catolicos X Candomble[Catholic Saints Vs Candomble]
TTITLE10=Pai Grande [Great Father]
TTITLE11=Seducao [Seduction]
TTITLE12=Francisco
TTITLE13=Maria Solidaria [Maria's Solidarity]
TTITLE14=De Repente Maria Sumiu [All Of A Sudden, Maria Was Gone]
TTITLE15=Eu Sou uma Preta Velha Aqui Sentada no Soi [I'm An Old Black 
TTITLE15=Lady, Sitting Under The Sun]
TTITLE16=Boca A Boca [Mouth To Mouth]
TTITLE17=Maria Maria
EXTD=YEAR: 2002
EXTT0=
EXTT1=
EXTT2=
EXTT3=
EXTT4=
EXTT5=
EXTT6=
EXTT7=
EXTT8=
EXTT9=
EXTT10=
EXTT11=
EXTT12=
EXTT13=
EXTT14=
EXTT15=
EXTT16=
EXTT17=
PLAYORDER=
